<mxfile host="app.diagrams.net" modified="2020-11-17T11:04:41.457Z" agent="5.0 (Windows NT 10.0; Win64; x64) AppleWebKit/537.36 (KHTML, like Gecko) Chrome/86.0.4240.193 Safari/537.36" etag="NRtTLchEC3hPT89A0zE5" version="13.9.7" type="github" pages="2">
  <diagram id="C5RBs43oDa-KdzZeNtuy" name="MaoRoutingManager">
    <mxGraphModel dx="1344" dy="778" grid="1" gridSize="10" guides="1" tooltips="1" connect="1" arrows="1" fold="1" page="1" pageScale="1" pageWidth="827" pageHeight="1169" math="0" shadow="0">
      <root>
        <mxCell id="WIyWlLk6GJQsqaUBKTNV-0" />
        <mxCell id="WIyWlLk6GJQsqaUBKTNV-1" parent="WIyWlLk6GJQsqaUBKTNV-0" />
        <mxCell id="qZ5nZu_tmP8a2BOeMHJ3-21" value="Cross-Functional Flowchart" style="shape=table;childLayout=tableLayout;rowLines=0;columnLines=0;startSize=40;html=1;whiteSpace=wrap;collapsible=0;recursiveResize=0;expand=0;pointerEvents=0;fontStyle=1;align=center;" parent="WIyWlLk6GJQsqaUBKTNV-1" vertex="1">
          <mxGeometry x="30" y="30" width="760" height="750" as="geometry" />
        </mxCell>
        <mxCell id="qZ5nZu_tmP8a2BOeMHJ3-22" value="" style="swimlane;horizontal=0;points=[[0,0.5],[1,0.5]];portConstraint=eastwest;startSize=20;html=1;whiteSpace=wrap;collapsible=0;recursiveResize=0;expand=0;pointerEvents=0;fontStyle=1" parent="qZ5nZu_tmP8a2BOeMHJ3-21" vertex="1">
          <mxGeometry y="40" width="760" height="710" as="geometry" />
        </mxCell>
        <mxCell id="qZ5nZu_tmP8a2BOeMHJ3-23" value="app activated" style="swimlane;connectable=0;startSize=40;html=1;whiteSpace=wrap;collapsible=0;recursiveResize=0;expand=0;pointerEvents=0;" parent="qZ5nZu_tmP8a2BOeMHJ3-22" vertex="1">
          <mxGeometry x="20" width="247" height="710" as="geometry" />
        </mxCell>
        <mxCell id="WIyWlLk6GJQsqaUBKTNV-3" value="this.activate()" style="rounded=1;whiteSpace=wrap;html=1;fontSize=12;glass=0;strokeWidth=1;shadow=0;" parent="qZ5nZu_tmP8a2BOeMHJ3-23" vertex="1">
          <mxGeometry x="57" y="61" width="120" height="40" as="geometry" />
        </mxCell>
        <mxCell id="qZ5nZu_tmP8a2BOeMHJ3-0" value="intentMap.clear()" style="rounded=1;whiteSpace=wrap;html=1;fontSize=12;glass=0;strokeWidth=1;shadow=0;" parent="qZ5nZu_tmP8a2BOeMHJ3-23" vertex="1">
          <mxGeometry x="57" y="141" width="120" height="40" as="geometry" />
        </mxCell>
        <mxCell id="qZ5nZu_tmP8a2BOeMHJ3-8" value="" style="endArrow=classic;html=1;exitX=0.5;exitY=1;exitDx=0;exitDy=0;" parent="qZ5nZu_tmP8a2BOeMHJ3-23" source="WIyWlLk6GJQsqaUBKTNV-3" target="qZ5nZu_tmP8a2BOeMHJ3-0" edge="1">
          <mxGeometry width="50" height="50" relative="1" as="geometry">
            <mxPoint x="287" y="141" as="sourcePoint" />
            <mxPoint x="337" y="91" as="targetPoint" />
          </mxGeometry>
        </mxCell>
        <mxCell id="qZ5nZu_tmP8a2BOeMHJ3-9" value="registerApplication()" style="rounded=1;whiteSpace=wrap;html=1;fontSize=12;glass=0;strokeWidth=1;shadow=0;" parent="qZ5nZu_tmP8a2BOeMHJ3-23" vertex="1">
          <mxGeometry x="57" y="221" width="120" height="40" as="geometry" />
        </mxCell>
        <mxCell id="qZ5nZu_tmP8a2BOeMHJ3-12" value="" style="endArrow=classic;html=1;exitX=0.5;exitY=1;exitDx=0;exitDy=0;entryX=0.5;entryY=0;entryDx=0;entryDy=0;" parent="qZ5nZu_tmP8a2BOeMHJ3-23" source="qZ5nZu_tmP8a2BOeMHJ3-0" target="qZ5nZu_tmP8a2BOeMHJ3-9" edge="1">
          <mxGeometry width="50" height="50" relative="1" as="geometry">
            <mxPoint x="257" y="231" as="sourcePoint" />
            <mxPoint x="307" y="181" as="targetPoint" />
          </mxGeometry>
        </mxCell>
        <mxCell id="qZ5nZu_tmP8a2BOeMHJ3-15" value="" style="endArrow=classic;html=1;exitX=0.5;exitY=1;exitDx=0;exitDy=0;" parent="qZ5nZu_tmP8a2BOeMHJ3-23" source="qZ5nZu_tmP8a2BOeMHJ3-9" edge="1">
          <mxGeometry width="50" height="50" relative="1" as="geometry">
            <mxPoint x="257" y="321" as="sourcePoint" />
            <mxPoint x="117" y="301" as="targetPoint" />
          </mxGeometry>
        </mxCell>
        <mxCell id="qZ5nZu_tmP8a2BOeMHJ3-16" value="addProcessor()" style="rounded=1;whiteSpace=wrap;html=1;fontSize=12;glass=0;strokeWidth=1;shadow=0;" parent="qZ5nZu_tmP8a2BOeMHJ3-23" vertex="1">
          <mxGeometry x="57" y="301" width="120" height="40" as="geometry" />
        </mxCell>
        <mxCell id="qZ5nZu_tmP8a2BOeMHJ3-17" value="requestPackets(IPv4)" style="rounded=1;whiteSpace=wrap;html=1;fontSize=12;glass=0;strokeWidth=1;shadow=0;" parent="qZ5nZu_tmP8a2BOeMHJ3-23" vertex="1">
          <mxGeometry x="57" y="381" width="120" height="40" as="geometry" />
        </mxCell>
        <mxCell id="qZ5nZu_tmP8a2BOeMHJ3-20" value="" style="endArrow=classic;html=1;exitX=0.5;exitY=1;exitDx=0;exitDy=0;" parent="qZ5nZu_tmP8a2BOeMHJ3-23" source="qZ5nZu_tmP8a2BOeMHJ3-16" target="qZ5nZu_tmP8a2BOeMHJ3-17" edge="1">
          <mxGeometry width="50" height="50" relative="1" as="geometry">
            <mxPoint x="257" y="401" as="sourcePoint" />
            <mxPoint x="307" y="351" as="targetPoint" />
          </mxGeometry>
        </mxCell>
        <mxCell id="qZ5nZu_tmP8a2BOeMHJ3-24" value="packet_in message received" style="swimlane;connectable=0;startSize=40;html=1;whiteSpace=wrap;collapsible=0;recursiveResize=0;expand=0;pointerEvents=0;" parent="qZ5nZu_tmP8a2BOeMHJ3-22" vertex="1">
          <mxGeometry x="267" width="472" height="710" as="geometry" />
        </mxCell>
        <mxCell id="qZ5nZu_tmP8a2BOeMHJ3-34" value="InternalPacketProcessor.&lt;br&gt;proccess()" style="rounded=1;whiteSpace=wrap;html=1;fontSize=12;glass=0;strokeWidth=1;shadow=0;" parent="qZ5nZu_tmP8a2BOeMHJ3-24" vertex="1">
          <mxGeometry x="40" y="61" width="160" height="40" as="geometry" />
        </mxCell>
        <mxCell id="qZ5nZu_tmP8a2BOeMHJ3-42" value="&lt;font style=&quot;font-size: 10px;&quot;&gt;&lt;span style=&quot;font-size: 10px;&quot;&gt;intentMap.containsKey()&lt;/span&gt;&lt;br style=&quot;font-size: 10px;&quot;&gt;&lt;span style=&quot;font-size: 10px;&quot;&gt;: by src/dst Ip Address&lt;/span&gt;&lt;/font&gt;" style="rhombus;whiteSpace=wrap;html=1;fontSize=10;" parent="qZ5nZu_tmP8a2BOeMHJ3-24" vertex="1">
          <mxGeometry x="40" y="220" width="160" height="60" as="geometry" />
        </mxCell>
        <mxCell id="qZ5nZu_tmP8a2BOeMHJ3-43" value="context.block()" style="rounded=1;whiteSpace=wrap;html=1;" parent="qZ5nZu_tmP8a2BOeMHJ3-24" vertex="1">
          <mxGeometry x="250" y="220" width="120" height="60" as="geometry" />
        </mxCell>
        <mxCell id="qZ5nZu_tmP8a2BOeMHJ3-38" value="" style="endArrow=classic;html=1;exitX=0.5;exitY=1;exitDx=0;exitDy=0;entryX=0.5;entryY=0;entryDx=0;entryDy=0;" parent="qZ5nZu_tmP8a2BOeMHJ3-24" target="qZ5nZu_tmP8a2BOeMHJ3-42" edge="1">
          <mxGeometry width="50" height="50" relative="1" as="geometry">
            <mxPoint x="120" y="190" as="sourcePoint" />
            <mxPoint x="120" y="220" as="targetPoint" />
          </mxGeometry>
        </mxCell>
        <mxCell id="qZ5nZu_tmP8a2BOeMHJ3-45" value="no" style="endArrow=classic;html=1;exitX=1;exitY=0.5;exitDx=0;exitDy=0;entryX=0;entryY=0.5;entryDx=0;entryDy=0;" parent="qZ5nZu_tmP8a2BOeMHJ3-24" source="qZ5nZu_tmP8a2BOeMHJ3-42" target="qZ5nZu_tmP8a2BOeMHJ3-43" edge="1">
          <mxGeometry y="10" width="50" height="50" relative="1" as="geometry">
            <mxPoint x="70" y="220" as="sourcePoint" />
            <mxPoint x="120" y="170" as="targetPoint" />
            <mxPoint as="offset" />
          </mxGeometry>
        </mxCell>
        <mxCell id="qZ5nZu_tmP8a2BOeMHJ3-47" value="path.iterator().next()&lt;br&gt;: getBestPath" style="rounded=1;whiteSpace=wrap;html=1;fontSize=12;glass=0;strokeWidth=1;shadow=0;" parent="qZ5nZu_tmP8a2BOeMHJ3-24" vertex="1">
          <mxGeometry x="40" y="310" width="160" height="40" as="geometry" />
        </mxCell>
        <mxCell id="V6kfuixd66puowwuHCxc-22" value="logging Path&lt;br&gt;info(src,dst,links)" style="rounded=1;whiteSpace=wrap;html=1;fontSize=12;glass=0;strokeWidth=1;shadow=0;" parent="qZ5nZu_tmP8a2BOeMHJ3-24" vertex="1">
          <mxGeometry x="40" y="390" width="160" height="40" as="geometry" />
        </mxCell>
        <mxCell id="V6kfuixd66puowwuHCxc-26" value="PathIntent.build()&lt;br&gt;priority=65432, path" style="rounded=1;whiteSpace=wrap;html=1;fontSize=12;glass=0;strokeWidth=1;shadow=0;" parent="qZ5nZu_tmP8a2BOeMHJ3-24" vertex="1">
          <mxGeometry x="40" y="471" width="160" height="40" as="geometry" />
        </mxCell>
        <mxCell id="V6kfuixd66puowwuHCxc-27" value="intentService.submit()&lt;br&gt;intentMap.put()" style="rounded=1;whiteSpace=wrap;html=1;fontSize=12;glass=0;strokeWidth=1;shadow=0;" parent="qZ5nZu_tmP8a2BOeMHJ3-24" vertex="1">
          <mxGeometry x="40" y="550" width="160" height="40" as="geometry" />
        </mxCell>
        <mxCell id="V6kfuixd66puowwuHCxc-29" value="context.block()" style="rounded=1;whiteSpace=wrap;html=1;fontSize=12;glass=0;strokeWidth=1;shadow=0;" parent="qZ5nZu_tmP8a2BOeMHJ3-24" vertex="1">
          <mxGeometry x="40" y="630" width="160" height="40" as="geometry" />
        </mxCell>
        <mxCell id="V6kfuixd66puowwuHCxc-30" value="" style="endArrow=classic;html=1;labelPosition=right;verticalLabelPosition=middle;align=left;verticalAlign=middle;entryX=0.5;entryY=0;entryDx=0;entryDy=0;exitX=0.5;exitY=1;exitDx=0;exitDy=0;" parent="qZ5nZu_tmP8a2BOeMHJ3-24" source="V6kfuixd66puowwuHCxc-27" target="V6kfuixd66puowwuHCxc-29" edge="1">
          <mxGeometry width="50" height="50" relative="1" as="geometry">
            <mxPoint x="130" y="520" as="sourcePoint" />
            <mxPoint x="130" y="560" as="targetPoint" />
          </mxGeometry>
        </mxCell>
        <mxCell id="dk8zs9Qdye3zeuqklg6u-1" value="&lt;span style=&quot;font-size: 9px&quot;&gt;paths =&amp;nbsp;&lt;br&gt;getLoadBalancePaths()&lt;/span&gt;&lt;br style=&quot;font-size: 9px&quot;&gt;&lt;span style=&quot;font-size: 9px&quot;&gt;: get Paths by src/dst mac&lt;/span&gt;" style="shape=process;whiteSpace=wrap;html=1;backgroundOutline=1;" parent="qZ5nZu_tmP8a2BOeMHJ3-24" vertex="1">
          <mxGeometry x="40" y="130" width="160" height="60" as="geometry" />
        </mxCell>
        <mxCell id="qZ5nZu_tmP8a2BOeMHJ3-35" value="" style="endArrow=classic;html=1;exitX=0.5;exitY=1;exitDx=0;exitDy=0;entryX=0.5;entryY=0;entryDx=0;entryDy=0;" parent="qZ5nZu_tmP8a2BOeMHJ3-24" source="qZ5nZu_tmP8a2BOeMHJ3-34" edge="1" target="dk8zs9Qdye3zeuqklg6u-1">
          <mxGeometry width="50" height="50" relative="1" as="geometry">
            <mxPoint x="73" y="320" as="sourcePoint" />
            <mxPoint x="133" y="130" as="targetPoint" />
          </mxGeometry>
        </mxCell>
        <mxCell id="V6kfuixd66puowwuHCxc-25" value="" style="endArrow=classic;html=1;labelPosition=right;verticalLabelPosition=middle;align=left;verticalAlign=middle;exitX=0.5;exitY=1;exitDx=0;exitDy=0;entryX=0.5;entryY=0;entryDx=0;entryDy=0;" parent="qZ5nZu_tmP8a2BOeMHJ3-24" source="V6kfuixd66puowwuHCxc-22" edge="1" target="V6kfuixd66puowwuHCxc-26">
          <mxGeometry width="50" height="50" relative="1" as="geometry">
            <mxPoint x="133" y="440" as="sourcePoint" />
            <mxPoint x="133" y="470" as="targetPoint" />
          </mxGeometry>
        </mxCell>
        <mxCell id="V6kfuixd66puowwuHCxc-0" value="" style="endArrow=classic;html=1;exitX=0.5;exitY=1;exitDx=0;exitDy=0;labelPosition=right;verticalLabelPosition=middle;align=left;verticalAlign=middle;entryX=0.5;entryY=0;entryDx=0;entryDy=0;" parent="qZ5nZu_tmP8a2BOeMHJ3-24" source="qZ5nZu_tmP8a2BOeMHJ3-47" edge="1" target="V6kfuixd66puowwuHCxc-22">
          <mxGeometry width="50" height="50" relative="1" as="geometry">
            <mxPoint x="143" y="290" as="sourcePoint" />
            <mxPoint x="133" y="390" as="targetPoint" />
          </mxGeometry>
        </mxCell>
        <mxCell id="qZ5nZu_tmP8a2BOeMHJ3-46" value="yes" style="endArrow=classic;html=1;exitX=0.5;exitY=1;exitDx=0;exitDy=0;labelPosition=right;verticalLabelPosition=middle;align=left;verticalAlign=middle;entryX=0.5;entryY=0;entryDx=0;entryDy=0;" parent="qZ5nZu_tmP8a2BOeMHJ3-24" source="qZ5nZu_tmP8a2BOeMHJ3-42" edge="1" target="qZ5nZu_tmP8a2BOeMHJ3-47">
          <mxGeometry width="50" height="50" relative="1" as="geometry">
            <mxPoint x="83" y="290" as="sourcePoint" />
            <mxPoint x="133" y="310" as="targetPoint" />
          </mxGeometry>
        </mxCell>
        <mxCell id="V6kfuixd66puowwuHCxc-28" value="" style="endArrow=classic;html=1;labelPosition=right;verticalLabelPosition=middle;align=left;verticalAlign=middle;entryX=0.5;entryY=0;entryDx=0;entryDy=0;exitX=0.5;exitY=1;exitDx=0;exitDy=0;" parent="qZ5nZu_tmP8a2BOeMHJ3-24" target="V6kfuixd66puowwuHCxc-27" edge="1" source="V6kfuixd66puowwuHCxc-26">
          <mxGeometry width="50" height="50" relative="1" as="geometry">
            <mxPoint x="133" y="510" as="sourcePoint" />
            <mxPoint x="143" y="480" as="targetPoint" />
          </mxGeometry>
        </mxCell>
        <mxCell id="qZ5nZu_tmP8a2BOeMHJ3-25" value="" style="swimlane;connectable=0;startSize=40;html=1;whiteSpace=wrap;collapsible=0;recursiveResize=0;expand=0;pointerEvents=0;" parent="qZ5nZu_tmP8a2BOeMHJ3-22" vertex="1">
          <mxGeometry x="739" width="21" height="710" as="geometry" />
        </mxCell>
      </root>
    </mxGraphModel>
  </diagram>
  <diagram id="Vse35agWVs5t85zna4bd" name="getLoadBalancePaths">
    <mxGraphModel dx="1120" dy="648" grid="1" gridSize="10" guides="1" tooltips="1" connect="1" arrows="1" fold="1" page="1" pageScale="1" pageWidth="827" pageHeight="1169" math="0" shadow="0">
      <root>
        <mxCell id="VGAddEkLSjgZHR_A4-wi-0" />
        <mxCell id="VGAddEkLSjgZHR_A4-wi-1" parent="VGAddEkLSjgZHR_A4-wi-0" />
        <mxCell id="osHa3QH00EgjZzKBYA_n-0" value="&lt;span style=&quot;font-size: 9px&quot;&gt;getLoadBalancePaths()&lt;/span&gt;" style="rounded=1;whiteSpace=wrap;html=1;fontSize=12;glass=0;strokeWidth=1;shadow=0;" parent="VGAddEkLSjgZHR_A4-wi-1" vertex="1">
          <mxGeometry x="50" y="60" width="160" height="40" as="geometry" />
        </mxCell>
        <mxCell id="osHa3QH00EgjZzKBYA_n-1" value="LoadBalanceRouting.&lt;br style=&quot;font-size: 11px;&quot;&gt;getLoadBalancePaths()" style="shape=process;whiteSpace=wrap;html=1;backgroundOutline=1;fontSize=11;" parent="VGAddEkLSjgZHR_A4-wi-1" vertex="1">
          <mxGeometry x="50" y="140" width="160" height="60" as="geometry" />
        </mxCell>
        <mxCell id="osHa3QH00EgjZzKBYA_n-3" value="" style="endArrow=classic;html=1;exitX=0.5;exitY=1;exitDx=0;exitDy=0;entryX=0.5;entryY=0;entryDx=0;entryDy=0;" parent="VGAddEkLSjgZHR_A4-wi-1" source="osHa3QH00EgjZzKBYA_n-0" target="osHa3QH00EgjZzKBYA_n-1" edge="1">
          <mxGeometry width="50" height="50" relative="1" as="geometry">
            <mxPoint x="430" y="120" as="sourcePoint" />
            <mxPoint x="480" y="70" as="targetPoint" />
          </mxGeometry>
        </mxCell>
        <mxCell id="61-6OJltkCezIOI_QeGa-2" value="" style="edgeStyle=orthogonalEdgeStyle;rounded=0;orthogonalLoop=1;jettySize=auto;html=1;fontSize=11;" edge="1" parent="VGAddEkLSjgZHR_A4-wi-1" source="osHa3QH00EgjZzKBYA_n-4" target="osHa3QH00EgjZzKBYA_n-5">
          <mxGeometry relative="1" as="geometry" />
        </mxCell>
        <mxCell id="osHa3QH00EgjZzKBYA_n-4" value="Topology currentTopo = topologyService.currentTopology();&amp;nbsp;" style="shape=parallelogram;perimeter=parallelogramPerimeter;whiteSpace=wrap;html=1;fixedSize=1;fontSize=11;" parent="VGAddEkLSjgZHR_A4-wi-1" vertex="1">
          <mxGeometry x="270" y="140" width="160" height="60" as="geometry" />
        </mxCell>
        <mxCell id="osHa3QH00EgjZzKBYA_n-5" value="&lt;span style=&quot;font-size: 9px&quot;&gt;getLoadBalancePaths(src,dst)&lt;/span&gt;" style="rounded=1;whiteSpace=wrap;html=1;fontSize=12;glass=0;strokeWidth=1;shadow=0;" parent="VGAddEkLSjgZHR_A4-wi-1" vertex="1">
          <mxGeometry x="270" y="60" width="160" height="40" as="geometry" />
        </mxCell>
        <mxCell id="shJUG-iEEOyuPqfWN2ze-1" value="" style="endArrow=classic;html=1;exitX=0.5;exitY=1;exitDx=0;exitDy=0;entryX=0.5;entryY=0;entryDx=0;entryDy=0;" parent="VGAddEkLSjgZHR_A4-wi-1" source="osHa3QH00EgjZzKBYA_n-5" target="osHa3QH00EgjZzKBYA_n-4" edge="1">
          <mxGeometry width="50" height="50" relative="1" as="geometry">
            <mxPoint x="140" y="110" as="sourcePoint" />
            <mxPoint x="140" y="150" as="targetPoint" />
          </mxGeometry>
        </mxCell>
        <mxCell id="shJUG-iEEOyuPqfWN2ze-2" value="" style="endArrow=classic;html=1;exitX=0.5;exitY=1;exitDx=0;exitDy=0;" parent="VGAddEkLSjgZHR_A4-wi-1" source="osHa3QH00EgjZzKBYA_n-4" edge="1">
          <mxGeometry width="50" height="50" relative="1" as="geometry">
            <mxPoint x="360" y="110" as="sourcePoint" />
            <mxPoint x="350" y="240" as="targetPoint" />
          </mxGeometry>
        </mxCell>
        <mxCell id="shJUG-iEEOyuPqfWN2ze-3" value="LoadBalanceRouting.&lt;br style=&quot;font-size: 11px&quot;&gt;getLoadBalancePaths&lt;br&gt;(topo. src,dst)" style="shape=process;whiteSpace=wrap;html=1;backgroundOutline=1;fontSize=11;" parent="VGAddEkLSjgZHR_A4-wi-1" vertex="1">
          <mxGeometry x="270" y="240" width="160" height="60" as="geometry" />
        </mxCell>
        <mxCell id="61-6OJltkCezIOI_QeGa-0" value="&lt;span style=&quot;font-size: 11px&quot;&gt;LoadBalanceRouting.&lt;/span&gt;&lt;br style=&quot;font-size: 11px&quot;&gt;&lt;span style=&quot;font-size: 11px&quot;&gt;getLoadBalancePaths&lt;/span&gt;&lt;br style=&quot;font-size: 11px&quot;&gt;&lt;span style=&quot;font-size: 11px&quot;&gt;(topo. src,dst)&lt;/span&gt;" style="rounded=1;whiteSpace=wrap;html=1;fontSize=11;glass=0;strokeWidth=1;shadow=0;" vertex="1" parent="VGAddEkLSjgZHR_A4-wi-1">
          <mxGeometry x="494" y="60" width="160" height="40" as="geometry" />
        </mxCell>
        <mxCell id="61-6OJltkCezIOI_QeGa-1" value="src와 dst가 스위치인가?" style="rhombus;whiteSpace=wrap;html=1;fontSize=11;" vertex="1" parent="VGAddEkLSjgZHR_A4-wi-1">
          <mxGeometry x="490" y="130" width="170" height="80" as="geometry" />
        </mxCell>
        <mxCell id="61-6OJltkCezIOI_QeGa-3" value="yes" style="endArrow=classic;html=1;fontSize=11;exitX=0.5;exitY=1;exitDx=0;exitDy=0;" edge="1" parent="VGAddEkLSjgZHR_A4-wi-1" source="61-6OJltkCezIOI_QeGa-1">
          <mxGeometry x="-0.3333" y="-15" width="50" height="50" relative="1" as="geometry">
            <mxPoint x="640" y="280" as="sourcePoint" />
            <mxPoint x="575" y="240" as="targetPoint" />
            <mxPoint as="offset" />
          </mxGeometry>
        </mxCell>
        <mxCell id="61-6OJltkCezIOI_QeGa-5" value="" style="endArrow=classic;html=1;fontSize=11;" edge="1" parent="VGAddEkLSjgZHR_A4-wi-1">
          <mxGeometry width="50" height="50" relative="1" as="geometry">
            <mxPoint x="574" y="100" as="sourcePoint" />
            <mxPoint x="574" y="130" as="targetPoint" />
          </mxGeometry>
        </mxCell>
        <mxCell id="61-6OJltkCezIOI_QeGa-6" value="src와 dst가호스트인가?" style="rhombus;whiteSpace=wrap;html=1;fontSize=11;" vertex="1" parent="VGAddEkLSjgZHR_A4-wi-1">
          <mxGeometry x="730" y="130" width="170" height="80" as="geometry" />
        </mxCell>
        <mxCell id="61-6OJltkCezIOI_QeGa-7" value="no" style="endArrow=classic;html=1;fontSize=11;exitX=1;exitY=0.5;exitDx=0;exitDy=0;entryX=0;entryY=0.5;entryDx=0;entryDy=0;spacing=3;" edge="1" parent="VGAddEkLSjgZHR_A4-wi-1" source="61-6OJltkCezIOI_QeGa-1" target="61-6OJltkCezIOI_QeGa-6">
          <mxGeometry x="-0.1429" y="10" width="50" height="50" relative="1" as="geometry">
            <mxPoint x="585" y="220.0000000000001" as="sourcePoint" />
            <mxPoint x="585" y="249.9999999999999" as="targetPoint" />
            <mxPoint as="offset" />
          </mxGeometry>
        </mxCell>
        <mxCell id="61-6OJltkCezIOI_QeGa-9" value="no" style="endArrow=classic;html=1;fontSize=11;exitX=1;exitY=0.5;exitDx=0;exitDy=0;entryX=0;entryY=0.5;entryDx=0;entryDy=0;spacing=3;" edge="1" parent="VGAddEkLSjgZHR_A4-wi-1">
          <mxGeometry x="-0.1429" y="10" width="50" height="50" relative="1" as="geometry">
            <mxPoint x="900" y="169.58" as="sourcePoint" />
            <mxPoint x="970" y="169.58" as="targetPoint" />
            <mxPoint as="offset" />
          </mxGeometry>
        </mxCell>
        <mxCell id="61-6OJltkCezIOI_QeGa-10" value="yes" style="endArrow=classic;html=1;fontSize=11;exitX=0.5;exitY=1;exitDx=0;exitDy=0;spacing=3;" edge="1" parent="VGAddEkLSjgZHR_A4-wi-1" source="61-6OJltkCezIOI_QeGa-6">
          <mxGeometry x="-0.3333" y="-15" width="50" height="50" relative="1" as="geometry">
            <mxPoint x="670" y="180" as="sourcePoint" />
            <mxPoint x="815" y="240" as="targetPoint" />
            <mxPoint as="offset" />
          </mxGeometry>
        </mxCell>
        <mxCell id="61-6OJltkCezIOI_QeGa-11" value="&lt;span style=&quot;color: rgba(0 , 0 , 0 , 0) ; font-family: monospace ; font-size: 0px&quot;&gt;11&lt;br&gt;&lt;/span&gt;" style="shape=process;whiteSpace=wrap;html=1;backgroundOutline=1;fontSize=11;" vertex="1" parent="VGAddEkLSjgZHR_A4-wi-1">
          <mxGeometry x="494" y="240" width="160" height="60" as="geometry" />
        </mxCell>
      </root>
    </mxGraphModel>
  </diagram>
</mxfile>
